<svg width="16" height="16" viewBox="0 0 16 16" fill="none" xmlns="http://www.w3.org/2000/svg">
<g opacity="0.5">
<path fill-rule="evenodd" clip-rule="evenodd" d="M12.6667 2.66666H12V1.66666C12 1.48257 11.8508 1.33333 11.6667 1.33333H11C10.8159 1.33333 10.6667 1.48257 10.6667 1.66666V2.66666H5.33333V1.66666C5.33333 1.48257 5.18409 1.33333 5 1.33333H4.33333C4.14924 1.33333 4 1.48257 4 1.66666V2.66666H3.33333C2.59695 2.66666 2 3.26362 2 3.99999V12.6667C2 13.403 2.59695 14 3.33333 14H12.6667C13.403 14 14 13.403 14 12.6667V3.99999C14 3.26362 13.403 2.66666 12.6667 2.66666ZM12.6667 12.6667H3.33333V5.33333H12.6667V12.6667ZM8.33333 7.99999H7.66667C7.48257 7.99999 7.33333 7.85076 7.33333 7.66666V6.99999C7.33333 6.8159 7.48257 6.66666 7.66667 6.66666H8.33333C8.51743 6.66666 8.66667 6.8159 8.66667 6.99999V7.66666C8.66667 7.85076 8.51743 7.99999 8.33333 7.99999ZM10.3333 7.99999H11C11.1841 7.99999 11.3333 7.85076 11.3333 7.66666V6.99999C11.3333 6.8159 11.1841 6.66666 11 6.66666H10.3333C10.1492 6.66666 10 6.8159 10 6.99999V7.66666C10 7.85076 10.1492 7.99999 10.3333 7.99999ZM5.66667 7.99999H5C4.8159 7.99999 4.66667 7.85076 4.66667 7.66666V6.99999C4.66667 6.8159 4.8159 6.66666 5 6.66666H5.66667C5.85076 6.66666 6 6.8159 6 6.99999V7.66666C6 7.85076 5.85076 7.99999 5.66667 7.99999ZM7.66667 10.6667H8.33333C8.51743 10.6667 8.66667 10.5174 8.66667 10.3333V9.66666C8.66667 9.48257 8.51743 9.33333 8.33333 9.33333H7.66667C7.48257 9.33333 7.33333 9.48257 7.33333 9.66666V10.3333C7.33333 10.5174 7.48257 10.6667 7.66667 10.6667ZM5.66667 10.6667H5C4.8159 10.6667 4.66667 10.5174 4.66667 10.3333V9.66666C4.66667 9.48257 4.8159 9.33333 5 9.33333H5.66667C5.85076 9.33333 6 9.48257 6 9.66666V10.3333C6 10.5174 5.85076 10.6667 5.66667 10.6667Z" fill="#9D9DAA"/>
</g>
</svg>
