<svg width="24" height="24" viewBox="0 0 24 24" fill="none" xmlns="http://www.w3.org/2000/svg">
<path d="M10.6638 2.51238C11.031 2.18248 11.5072 1.99998 12.0008 1.99998C12.4944 1.99998 12.9706 2.18248 13.3378 2.51238L20.673 9.10338C20.8815 9.29093 21.0483 9.52024 21.1625 9.77642C21.2767 10.0326 21.3358 10.3099 21.3358 10.5904V19.9995C21.3358 20.53 21.125 21.0389 20.7499 21.414C20.3747 21.7892 19.8659 22 19.3353 22H16.0011C15.4706 22 14.9617 21.7892 14.5866 21.414C14.2114 21.0389 14.0006 20.53 14.0006 19.9995V15.3316C14.0006 15.1548 13.9304 14.9852 13.8053 14.8601C13.6803 14.735 13.5106 14.6648 13.3338 14.6648H10.6665C10.4896 14.6648 10.32 14.735 10.1949 14.8601C10.0699 14.9852 9.99962 15.1548 9.99962 15.3316V19.9995C9.99962 20.53 9.78885 21.0389 9.41368 21.414C9.03851 21.7892 8.52968 22 7.99911 22H4.66493C4.13437 22 3.62553 21.7892 3.25036 21.414C2.87519 21.0389 2.66443 20.53 2.66443 19.9995V10.5904C2.66443 10.0236 2.90449 9.48348 3.3286 9.10338L10.6638 2.51238ZM12.4456 3.50463C12.3232 3.39479 12.1646 3.33403 12.0001 3.33403C11.8357 3.33403 11.677 3.39479 11.5547 3.50463L4.21949 10.0956C4.15 10.158 4.09439 10.2343 4.05625 10.3195C4.01811 10.4048 3.9983 10.497 3.9981 10.5904V19.9995C3.9981 20.1763 4.06835 20.3459 4.19341 20.471C4.31847 20.5961 4.48808 20.6663 4.66493 20.6663H7.99911C8.17597 20.6663 8.34558 20.5961 8.47063 20.471C8.59569 20.3459 8.66595 20.1763 8.66595 19.9995V15.3316C8.66595 14.8011 8.87671 14.2922 9.25188 13.9171C9.62705 13.5419 10.1359 13.3311 10.6665 13.3311H13.3338C13.8644 13.3311 14.3732 13.5419 14.7484 13.9171C15.1235 14.2922 15.3343 14.8011 15.3343 15.3316V19.9995C15.3343 20.1763 15.4046 20.3459 15.5296 20.471C15.6547 20.5961 15.8243 20.6663 16.0011 20.6663H19.3353C19.5122 20.6663 19.6818 20.5961 19.8068 20.471C19.9319 20.3459 20.0021 20.1763 20.0021 19.9995V10.5904C20.0019 10.497 19.9821 10.4048 19.944 10.3195C19.9059 10.2343 19.8502 10.158 19.7808 10.0956L12.4456 3.50463Z" fill="#BBBBC4"/>
</svg>
